<svg width="224mm" height="97mm" version="1.1" viewBox="0 0 224 97" xmlns="http://www.w3.org/2000/svg">
<script type="text/javascript">
    alert('This app is probably vulnerable to XSS attacks!');
  </script>
 <rect x="90.5" y="29.5" width="42.4" height="9.46" stroke="#000" stroke-width=".343"/>
 <g fill="#ececec" font-family="sans-serif" font-size="10.2px" stroke-width=".255">
  <text transform="scale(1 1)" x="148.92642" y="52.133911" style="line-height:1.25" xml:space="preserve"><tspan x="148.92642" y="52.133911" fill="#ececec" stroke-width=".255">12</tspan></text>
  <text transform="scale(1 1)" x="172.17104" y="31.986958" style="line-height:1.25" xml:space="preserve"><tspan x="172.17104" y="31.986958" fill="#ececec" stroke-width=".255">0</tspan></text>
  <text transform="scale(1 1)" x="41.190037" y="72.035881" style="line-height:1.25" xml:space="preserve"><tspan x="41.190037" y="72.035881" fill="#ececec" stroke-width=".255">24</tspan></text>
  <text transform="scale(1 1)" x="21.189754" y="52.035664" style="line-height:1.25" xml:space="preserve"><tspan x="21.189754" y="52.035664" fill="#ececec" stroke-width=".255">28</tspan></text>
  <text transform="scale(1 1)" x="61.190319" y="52.035664" style="line-height:1.25" xml:space="preserve"><tspan x="61.190319" y="52.035664" fill="#ececec" stroke-width=".255">20</tspan></text>
  <text transform="scale(1 1)" x="41.190037" y="32.036446" style="line-height:1.25" xml:space="preserve"><tspan x="41.190037" y="32.036446" fill="#ececec" stroke-width=".255">16</tspan></text>
  <text transform="scale(1 1)" x="192.60445" y="51.861778" style="line-height:1.25" xml:space="preserve"><tspan x="192.60445" y="51.861778" fill="#ececec" stroke-width=".255">4</tspan></text>
  <text transform="scale(1 1)" x="172.54822" y="72.048866" style="line-height:1.25" xml:space="preserve"><tspan x="172.54822" y="72.048866" fill="#ececec" stroke-width=".255">8</tspan></text>
 </g>
 <g fill="none">
  <circle cx="48" cy="48" r="43.5" stroke="#b45e1f" stroke-width="9"/>
  <ellipse cx="48" cy="48" rx="33.6" ry="33.6" stroke="#2b2b2b" stroke-width="10.8"/>
 </g>
 <g stroke="#fff">
  <g stroke-width=".32">
   <rect transform="matrix(-1 .00405 .0132 -1 0 0)" x="-18.1" y="-51.8" width="6.6" height="6.66" ry=".0998" led="28"/>
   <rect transform="matrix(-.386 -.922 .929 -.37 0 0)" x="-32.4" y="22.2" width="6.6" height="6.66" ry=".0998" led="31"/>
   <rect transform="matrix(-.925 -.379 .395 -.919 0 0)" x="-66.8" y="-63.6" width="6.6" height="6.66" ry=".0998" led="25"/>
   <rect transform="matrix(-.925 -.379 .395 -.919 0 0)" x="-65.9" y="3.6" width="6.6" height="6.66" ry=".0998" led="17"/>
   <rect transform="matrix(-.925 -.379 .395 -.919 0 0)" x="-32.7" y="-29.9" width="6.6" height="6.66" ry=".0998" led="29"/>
   <rect transform="matrix(-.922 .386 -.37 -.929 0 0)" x="-63.4" y="-66.6" width="6.6" height="6.66" ry=".0998" led="19"/>
   <rect transform="matrix(-.386 -.922 .929 -.37 0 0)" x="-66.4" y="-11.6" width="6.6" height="6.66" ry=".0998" led="27"/>
   <rect transform="matrix(-.379 .925 -.919 -.395 0 0)" x="21.9" y="-99.5" width="6.6" height="6.66" ry=".0998" led="21"/>
  </g>
  <rect transform="matrix(-.394 -.919 .926 -.379 0 0)" x="-99.8" y="21.1" width="6.6" height="6.66" ry=".0998" stroke-width=".32" led="23"/>
  <g stroke-width=".32">
   <rect transform="matrix(-.71 -.704 .716 -.698 0 0)" x="-71.8" y="-37.7" width="6.6" height="6.66" ry=".0998" led="26"/>
   <rect transform="matrix(-.71 -.704 .716 -.698 0 0)" x="-70.9" y="29.6" width="6.6" height="6.66" ry=".0998" led="18"/>
   <rect transform="matrix(-.71 -.704 .716 -.698 0 0)" x="-105" y="-4.18" width="6.6" height="6.66" ry=".0998" led="22"/>
   <rect transform="matrix(-.71 -.704 .716 -.698 0 0)" x="-37.7" y="-3.91" width="6.6" height="6.66" ry=".0998" led="30"/>
   <rect transform="matrix(-1 .00405 .0132 -1 0 0)" x="-52.2" y="-85.6" width="6.6" height="6.66" ry=".0998" led="24"/>
   <rect transform="matrix(-1 .00405 .0132 -1 0 0)" x="-51.3" y="-18.3" width="6.6" height="6.66" ry=".0998" led="16"/>
   <rect transform="matrix(-1 .00405 .0132 -1 0 0)" x="-85.3" y="-52.1" width="6.6" height="6.66" ry=".0998" led="20"/>
  </g>
 </g>
 <circle cx="176" cy="48.3" r="43.5" fill="none" stroke="#b45e1f" stroke-width="9"/>
 <ellipse cx="176" cy="48.3" rx="33.6" ry="33.6" fill="none" stroke="#2b2b2b" stroke-width="10.8"/>
 <g stroke="#fff">
  <g stroke-width=".32">
   <rect transform="matrix(-1 .00405 .0132 -1 0 0)" x="-146" y="-52.6" width="6.6" height="6.66" ry=".0998" led="12"/>
   <rect transform="matrix(-.386 -.922 .929 -.37 0 0)" x="-80" y="140" width="6.6" height="6.66" ry=".0998" led="15"/>
   <rect transform="matrix(-.925 -.379 .395 -.919 0 0)" x="-184" y="-15.5" width="6.6" height="6.66" ry=".0998" led="9"/>
   <rect transform="matrix(-.925 -.379 .395 -.919 0 0)" x="-183" y="51.8" width="6.6" height="6.66" ry=".0998" led="1"/>
   <rect transform="matrix(-.925 -.379 .395 -.919 0 0)" x="-150" y="18.3" width="6.6" height="6.66" ry=".0998" led="13"/>
   <rect transform="matrix(-.922 .386 -.37 -.929 0 0)" x="-182" y="-116" width="6.6" height="6.66" ry=".0998" led="3"/>
   <rect transform="matrix(-.386 -.922 .929 -.37 0 0)" x="-114" y="106" width="6.6" height="6.66" ry=".0998" led="11"/>
   <rect transform="matrix(-.379 .925 -.919 -.395 0 0)" x="-28.3" y="-218" width="6.6" height="6.66" ry=".0998" led="5"/>
  </g>
  <rect transform="matrix(-.394 -.919 .926 -.379 0 0)" x="-148" y="138" width="6.6" height="6.66" ry=".0998" stroke-width=".32" led="7"/>
  <g stroke-width=".32">
   <rect transform="matrix(-.71 -.704 .716 -.698 0 0)" x="-161" y="52.2" width="6.6" height="6.66" ry=".0998" led="10"/>
   <rect transform="matrix(-.71 -.704 .716 -.698 0 0)" x="-160" y="119" width="6.6" height="6.66" ry=".0998" led="2"/>
   <rect transform="matrix(-.71 -.704 .716 -.698 0 0)" x="-194" y="85.6" width="6.6" height="6.66" ry=".0998" led="6"/>
   <rect transform="matrix(-.71 -.704 .716 -.698 0 0)" x="-127" y="85.9" width="6.6" height="6.66" ry=".0998" led="14"/>
   <rect transform="matrix(-1 .00405 .0132 -1 0 0)" x="-180" y="-86.4" width="6.6" height="6.66" ry=".0998" led="8"/>
   <rect transform="matrix(-1 .00405 .0132 -1 0 0)" x="-179" y="-19.1" width="6.6" height="6.66" ry=".0998" led="0"/>
   <rect transform="matrix(-1 .00405 .0132 -1 0 0)" x="-213" y="-52.9" width="6.6" height="6.66" ry=".0998" led="4"/>
  </g>
 </g>
</svg>