<?xml version="1.0" encoding="UTF-8" standalone="no"?>
<!-- Created with Inkscape (http://www.inkscape.org/) -->

<svg
   width="88.5mm"
   height="74mm"
   viewBox="0 0 88.5 74"
   version="1.1"
   id="svg1"
   inkscape:version="1.3.2 (091e20ef0f, 2023-11-25)"
   sodipodi:docname="Matrix-81pxl.svg"
   xmlns:inkscape="http://www.inkscape.org/namespaces/inkscape"
   xmlns:sodipodi="http://sodipodi.sourceforge.net/DTD/sodipodi-0.dtd"
   xmlns="http://www.w3.org/2000/svg"
   xmlns:svg="http://www.w3.org/2000/svg">
  <sodipodi:namedview
     id="namedview1"
     pagecolor="#ffffff"
     bordercolor="#000000"
     borderopacity="0.25"
     inkscape:showpageshadow="2"
     inkscape:pageopacity="0.0"
     inkscape:pagecheckerboard="0"
     inkscape:deskcolor="#d1d1d1"
     inkscape:document-units="mm"
     inkscape:zoom="2.362303"
     inkscape:cx="152.60532"
     inkscape:cy="122.12658"
     inkscape:window-width="1916"
     inkscape:window-height="1033"
     inkscape:window-x="0"
     inkscape:window-y="45"
     inkscape:window-maximized="1"
     inkscape:current-layer="svg1" />
  <defs
     id="defs1" />
  <g
     inkscape:label="Ebene 1"
     inkscape:groupmode="layer"
     id="layer1" />
  <rect
     style="fill:#2b2b2b;fill-opacity:1;stroke:#999999;stroke-width:0.7;stroke-dasharray:none;stroke-opacity:1"
     id="rect22"
     width="73.486076"
     height="73.258141"
     x="7.6274338"
     y="0.34999999" />
  <g
     id="g633"
     transform="translate(9.2636843,1.9862504)">
    <rect
       x="0"
       y="0"
       width="7"
       height="7"
       style="stroke:#ffffff;stroke-width:0.320024"
       led="0"
       ry="0.099802688"
       id="rect570" />
    <rect
       x="9"
       y="0"
       width="7"
       height="7"
       style="stroke:#ffffff;stroke-width:0.320024"
       led="1"
       ry="0.099802688"
       id="rect571" />
    <rect
       x="18"
       y="0"
       width="7"
       height="7"
       style="stroke:#ffffff;stroke-width:0.320024"
       led="2"
       ry="0.099802688"
       id="rect572" />
    <rect
       x="27"
       y="0"
       width="7"
       height="7"
       style="stroke:#ffffff;stroke-width:0.320024"
       led="3"
       ry="0.099802688"
       id="rect573" />
    <rect
       x="36"
       y="0"
       width="7"
       height="7"
       style="stroke:#ffffff;stroke-width:0.320024"
       led="4"
       ry="0.099802688"
       id="rect574" />
    <rect
       x="45"
       y="0"
       width="7"
       height="7"
       style="stroke:#ffffff;stroke-width:0.320024"
       led="5"
       ry="0.099802688"
       id="rect575" />
    <rect
       x="54"
       y="0"
       width="7"
       height="7"
       style="stroke:#ffffff;stroke-width:0.320024"
       led="6"
       ry="0.099802688"
       id="rect576" />
    <rect
       x="63"
       y="0"
       width="7"
       height="7"
       style="stroke:#ffffff;stroke-width:0.320024"
       led="7"
       ry="0.099802688"
       id="rect577" />
    <rect
       x="0"
       y="9"
       width="7"
       height="7"
       style="stroke:#ffffff;stroke-width:0.320024"
       led="15"
       ry="0.099802688"
       id="rect578" />
    <rect
       x="9"
       y="9"
       width="7"
       height="7"
       style="stroke:#ffffff;stroke-width:0.320024"
       led="14"
       ry="0.099802688"
       id="rect579" />
    <rect
       x="18"
       y="9"
       width="7"
       height="7"
       style="stroke:#ffffff;stroke-width:0.320024"
       led="13"
       ry="0.099802688"
       id="rect580" />
    <rect
       x="27"
       y="9"
       width="7"
       height="7"
       style="stroke:#ffffff;stroke-width:0.320024"
       led="12"
       ry="0.099802688"
       id="rect581" />
    <rect
       x="36"
       y="9"
       width="7"
       height="7"
       style="stroke:#ffffff;stroke-width:0.320024"
       led="11"
       ry="0.099802688"
       id="rect582" />
    <rect
       x="45"
       y="9"
       width="7"
       height="7"
       style="stroke:#ffffff;stroke-width:0.320024"
       led="10"
       ry="0.099802688"
       id="rect583" />
    <rect
       x="54"
       y="9"
       width="7"
       height="7"
       style="stroke:#ffffff;stroke-width:0.320024"
       led="9"
       ry="0.099802688"
       id="rect584" />
    <rect
       x="63"
       y="9"
       width="7"
       height="7"
       style="stroke:#ffffff;stroke-width:0.320024"
       led="8"
       ry="0.099802688"
       id="rect585" />
    <rect
       x="0"
       y="18"
       width="7"
       height="7"
       style="stroke:#ffffff;stroke-width:0.320024"
       led="16"
       ry="0.099802688"
       id="rect586" />
    <rect
       x="9"
       y="18"
       width="7"
       height="7"
       style="stroke:#ffffff;stroke-width:0.320024"
       led="17"
       ry="0.099802688"
       id="rect587" />
    <rect
       x="18"
       y="18"
       width="7"
       height="7"
       style="stroke:#ffffff;stroke-width:0.320024"
       led="18"
       ry="0.099802688"
       id="rect588" />
    <rect
       x="27"
       y="18"
       width="7"
       height="7"
       style="stroke:#ffffff;stroke-width:0.320024"
       led="19"
       ry="0.099802688"
       id="rect589" />
    <rect
       x="36"
       y="18"
       width="7"
       height="7"
       style="stroke:#ffffff;stroke-width:0.320024"
       led="20"
       ry="0.099802688"
       id="rect590" />
    <rect
       x="45"
       y="18"
       width="7"
       height="7"
       style="stroke:#ffffff;stroke-width:0.320024"
       led="21"
       ry="0.099802688"
       id="rect591" />
    <rect
       x="54"
       y="18"
       width="7"
       height="7"
       style="stroke:#ffffff;stroke-width:0.320024"
       led="22"
       ry="0.099802688"
       id="rect592" />
    <rect
       x="63"
       y="18"
       width="7"
       height="7"
       style="stroke:#ffffff;stroke-width:0.320024"
       led="23"
       ry="0.099802688"
       id="rect593" />
    <rect
       x="0"
       y="27"
       width="7"
       height="7"
       style="stroke:#ffffff;stroke-width:0.320024"
       led="31"
       ry="0.099802688"
       id="rect594" />
    <rect
       x="9"
       y="27"
       width="7"
       height="7"
       style="stroke:#ffffff;stroke-width:0.320024"
       led="30"
       ry="0.099802688"
       id="rect595" />
    <rect
       x="18"
       y="27"
       width="7"
       height="7"
       style="stroke:#ffffff;stroke-width:0.320024"
       led="29"
       ry="0.099802688"
       id="rect596" />
    <rect
       x="27"
       y="27"
       width="7"
       height="7"
       style="stroke:#ffffff;stroke-width:0.320024"
       led="28"
       ry="0.099802688"
       id="rect597" />
    <rect
       x="36"
       y="27"
       width="7"
       height="7"
       style="stroke:#ffffff;stroke-width:0.320024"
       led="27"
       ry="0.099802688"
       id="rect598" />
    <rect
       x="45"
       y="27"
       width="7"
       height="7"
       style="stroke:#ffffff;stroke-width:0.320024"
       led="26"
       ry="0.099802688"
       id="rect599" />
    <rect
       x="54"
       y="27"
       width="7"
       height="7"
       style="stroke:#ffffff;stroke-width:0.320024"
       led="25"
       ry="0.099802688"
       id="rect600" />
    <rect
       x="63"
       y="27"
       width="7"
       height="7"
       style="stroke:#ffffff;stroke-width:0.320024"
       led="24"
       ry="0.099802688"
       id="rect601" />
    <rect
       x="0"
       y="36"
       width="7"
       height="7"
       style="stroke:#ffffff;stroke-width:0.320024"
       led="32"
       ry="0.099802688"
       id="rect602" />
    <rect
       x="9"
       y="36"
       width="7"
       height="7"
       style="stroke:#ffffff;stroke-width:0.320024"
       led="33"
       ry="0.099802688"
       id="rect603" />
    <rect
       x="18"
       y="36"
       width="7"
       height="7"
       style="stroke:#ffffff;stroke-width:0.320024"
       led="34"
       ry="0.099802688"
       id="rect604" />
    <rect
       x="27"
       y="36"
       width="7"
       height="7"
       style="stroke:#ffffff;stroke-width:0.320024"
       led="35"
       ry="0.099802688"
       id="rect605" />
    <rect
       x="36"
       y="36"
       width="7"
       height="7"
       style="stroke:#ffffff;stroke-width:0.320024"
       led="36"
       ry="0.099802688"
       id="rect606" />
    <rect
       x="45"
       y="36"
       width="7"
       height="7"
       style="stroke:#ffffff;stroke-width:0.320024"
       led="37"
       ry="0.099802688"
       id="rect607" />
    <rect
       x="54"
       y="36"
       width="7"
       height="7"
       style="stroke:#ffffff;stroke-width:0.320024"
       led="38"
       ry="0.099802688"
       id="rect608" />
    <rect
       x="63"
       y="36"
       width="7"
       height="7"
       style="stroke:#ffffff;stroke-width:0.320024"
       led="39"
       ry="0.099802688"
       id="rect609" />
    <rect
       x="0"
       y="45"
       width="7"
       height="7"
       style="stroke:#ffffff;stroke-width:0.320024"
       led="47"
       ry="0.099802688"
       id="rect610" />
    <rect
       x="9"
       y="45"
       width="7"
       height="7"
       style="stroke:#ffffff;stroke-width:0.320024"
       led="46"
       ry="0.099802688"
       id="rect611" />
    <rect
       x="18"
       y="45"
       width="7"
       height="7"
       style="stroke:#ffffff;stroke-width:0.320024"
       led="45"
       ry="0.099802688"
       id="rect612" />
    <rect
       x="27"
       y="45"
       width="7"
       height="7"
       style="stroke:#ffffff;stroke-width:0.320024"
       led="44"
       ry="0.099802688"
       id="rect613" />
    <rect
       x="36"
       y="45"
       width="7"
       height="7"
       style="stroke:#ffffff;stroke-width:0.320024"
       led="43"
       ry="0.099802688"
       id="rect614" />
    <rect
       x="45"
       y="45"
       width="7"
       height="7"
       style="stroke:#ffffff;stroke-width:0.320024"
       led="42"
       ry="0.099802688"
       id="rect615" />
    <rect
       x="54"
       y="45"
       width="7"
       height="7"
       style="stroke:#ffffff;stroke-width:0.320024"
       led="41"
       ry="0.099802688"
       id="rect616" />
    <rect
       x="63"
       y="45"
       width="7"
       height="7"
       style="stroke:#ffffff;stroke-width:0.320024"
       led="40"
       ry="0.099802688"
       id="rect617" />
    <rect
       x="0"
       y="54"
       width="7"
       height="7"
       style="stroke:#ffffff;stroke-width:0.320024"
       led="48"
       ry="0.099802688"
       id="rect618" />
    <rect
       x="9"
       y="54"
       width="7"
       height="7"
       style="stroke:#ffffff;stroke-width:0.320024"
       led="49"
       ry="0.099802688"
       id="rect619" />
    <rect
       x="18"
       y="54"
       width="7"
       height="7"
       style="stroke:#ffffff;stroke-width:0.320024"
       led="50"
       ry="0.099802688"
       id="rect620" />
    <rect
       x="27"
       y="54"
       width="7"
       height="7"
       style="stroke:#ffffff;stroke-width:0.320024"
       led="51"
       ry="0.099802688"
       id="rect621" />
    <rect
       x="36"
       y="54"
       width="7"
       height="7"
       style="stroke:#ffffff;stroke-width:0.320024"
       led="52"
       ry="0.099802688"
       id="rect622" />
    <rect
       x="45"
       y="54"
       width="7"
       height="7"
       style="stroke:#ffffff;stroke-width:0.320024"
       led="53"
       ry="0.099802688"
       id="rect623" />
    <rect
       x="54"
       y="54"
       width="7"
       height="7"
       style="stroke:#ffffff;stroke-width:0.320024"
       led="54"
       ry="0.099802688"
       id="rect624" />
    <rect
       x="63"
       y="54"
       width="7"
       height="7"
       style="stroke:#ffffff;stroke-width:0.320024"
       led="55"
       ry="0.099802688"
       id="rect625" />
    <rect
       x="0"
       y="63"
       width="7"
       height="7"
       style="stroke:#ffffff;stroke-width:0.320024"
       led="63"
       ry="0.099802688"
       id="rect626" />
    <rect
       x="9"
       y="63"
       width="7"
       height="7"
       style="stroke:#ffffff;stroke-width:0.320024"
       led="62"
       ry="0.099802688"
       id="rect627" />
    <rect
       x="18"
       y="63"
       width="7"
       height="7"
       style="stroke:#ffffff;stroke-width:0.320024"
       led="61"
       ry="0.099802688"
       id="rect628" />
    <rect
       x="27"
       y="63"
       width="7"
       height="7"
       style="stroke:#ffffff;stroke-width:0.320024"
       led="60"
       ry="0.099802688"
       id="rect629" />
    <rect
       x="36"
       y="63"
       width="7"
       height="7"
       style="stroke:#ffffff;stroke-width:0.320024"
       led="59"
       ry="0.099802688"
       id="rect630" />
    <rect
       x="45"
       y="63"
       width="7"
       height="7"
       style="stroke:#ffffff;stroke-width:0.320024"
       led="58"
       ry="0.099802688"
       id="rect631" />
    <rect
       x="54"
       y="63"
       width="7"
       height="7"
       style="stroke:#ffffff;stroke-width:0.320024"
       led="57"
       ry="0.099802688"
       id="rect632" />
    <rect
       x="63"
       y="63"
       width="7"
       height="7"
       style="stroke:#ffffff;stroke-width:0.320024"
       led="56"
       ry="0.099802688"
       id="rect633" />
  </g>
  <path
     id="rect634"
     style="fill:#00b413;fill-opacity:1;stroke:#999999;stroke-width:0.7;stroke-dasharray:none"
     d="M 5.9920327,2.5703497 C 5.9665212,2.5703497 5.9407842,2.5797403 5.921236,2.5992885 L 5.095447,3.4255947 C 5.05635,3.464691 5.05635,3.5275749 5.095447,3.5666713 L 6.2597164,4.7309413 H 0.44973499 C 0.39444499,4.7309413 0.34999999,4.7753862 0.34999999,4.8306769 V 6.1546271 C 0.34999999,6.2099177 0.39444499,6.2543626 0.44973499,6.2543626 H 6.2591996 L 5.095447,7.4181158 C 5.05635,7.4572122 5.05635,7.5200961 5.095447,7.5591925 L 5.921236,8.3854986 C 5.9603324,8.424595 6.0232163,8.424595 6.0623126,8.3854986 L 8.4011879,6.0466233 C 8.4402842,6.0075269 8.4011879,5.9608372 8.4011879,5.9055467 V 5.0792405 C 8.4011879,5.0239499 8.4402842,4.9772602 8.4011879,4.9381638 L 6.0623126,2.5992885 C 6.0427644,2.5797403 6.0175441,2.5703497 5.9920327,2.5703497 Z"
     sodipodi:nodetypes="sccccssssccccccsscss" />
  <path
     id="rect634-2"
     style="fill:#d73200;fill-opacity:1;stroke:#999999;stroke-width:0.7;stroke-dasharray:none"
     d="M 85.597474,65.533098 C 85.571963,65.533098 85.546226,65.542488 85.526677,65.562037 L 84.700889,66.388343 C 84.661792,66.427439 84.661792,66.490323 84.700889,66.529419 L 85.865158,67.693689 H 80.055177 C 79.999887,67.693689 79.955442,67.738134 79.955442,67.793425 V 69.117375 C 79.955442,69.172666 79.999887,69.217111 80.055177,69.217111 H 85.864641 L 84.700889,70.380864 C 84.661792,70.41996 84.661792,70.482844 84.700889,70.521941 L 85.526677,71.348247 C 85.565774,71.387343 85.628658,71.387343 85.667754,71.348247 L 88.006629,69.009371 C 88.045726,68.970275 88.006629,68.923585 88.006629,68.868295 V 68.041989 C 88.006629,67.986698 88.045726,67.940008 88.006629,67.900912 L 85.667754,65.562037 C 85.648206,65.542488 85.622986,65.533098 85.597474,65.533098 Z"
     sodipodi:nodetypes="sccccssssccccccsscss" />
</svg>
