<?xml version="1.0" encoding="UTF-8" standalone="no"?>
<!-- Created with Inkscape (http://www.inkscape.org/) -->

<svg
   width="82.5mm"
   height="74mm"
   viewBox="0 0 82.5 74"
   version="1.1"
   id="svg1"
   inkscape:version="1.3.2 (091e20ef0f, 2023-11-25)"
   sodipodi:docname="Matrix-8x8px-Same-Direction.svg"
   xmlns:inkscape="http://www.inkscape.org/namespaces/inkscape"
   xmlns:sodipodi="http://sodipodi.sourceforge.net/DTD/sodipodi-0.dtd"
   xmlns="http://www.w3.org/2000/svg"
   xmlns:svg="http://www.w3.org/2000/svg">
  <sodipodi:namedview
     id="namedview1"
     pagecolor="#ffffff"
     bordercolor="#000000"
     borderopacity="0.25"
     inkscape:showpageshadow="2"
     inkscape:pageopacity="0.0"
     inkscape:pagecheckerboard="0"
     inkscape:deskcolor="#d1d1d1"
     inkscape:document-units="mm"
     inkscape:zoom="2.3188873"
     inkscape:cx="104.3604"
     inkscape:cy="160.20615"
     inkscape:window-width="1916"
     inkscape:window-height="1033"
     inkscape:window-x="0"
     inkscape:window-y="45"
     inkscape:window-maximized="1"
     inkscape:current-layer="svg1" />
  <defs
     id="defs1" />
  <g
     inkscape:label="Ebene 1"
     inkscape:groupmode="layer"
     id="layer1" />
  <rect
     style="fill:#2b2b2b;fill-opacity:1;stroke:#999999;stroke-width:0.7;stroke-dasharray:none;stroke-opacity:1"
     id="rect22"
     width="73.486076"
     height="73.258141"
     x="7.6274338"
     y="0.34999999" />
  <rect
     x="9.2636843"
     y="1.9862504"
     width="7"
     height="7"
     style="stroke:#ffffff;stroke-width:0.320024"
     led="0"
     ry="0.099802688"
     id="rect570" />
  <rect
     x="18.263685"
     y="1.9862504"
     width="7"
     height="7"
     style="stroke:#ffffff;stroke-width:0.320024"
     led="1"
     ry="0.099802688"
     id="rect571" />
  <rect
     x="27.263685"
     y="1.9862504"
     width="7"
     height="7"
     style="stroke:#ffffff;stroke-width:0.320024"
     led="2"
     ry="0.099802688"
     id="rect572" />
  <rect
     x="36.263683"
     y="1.9862504"
     width="7"
     height="7"
     style="stroke:#ffffff;stroke-width:0.320024"
     led="3"
     ry="0.099802688"
     id="rect573" />
  <rect
     x="45.263683"
     y="1.9862504"
     width="7"
     height="7"
     style="stroke:#ffffff;stroke-width:0.320024"
     led="4"
     ry="0.099802688"
     id="rect574" />
  <rect
     x="54.263683"
     y="1.9862504"
     width="7"
     height="7"
     style="stroke:#ffffff;stroke-width:0.320024"
     led="5"
     ry="0.099802688"
     id="rect575" />
  <rect
     x="63.263683"
     y="1.9862504"
     width="7"
     height="7"
     style="stroke:#ffffff;stroke-width:0.320024"
     led="6"
     ry="0.099802688"
     id="rect576" />
  <rect
     x="72.263687"
     y="1.9862504"
     width="7"
     height="7"
     style="stroke:#ffffff;stroke-width:0.320024"
     led="7"
     ry="0.099802688"
     id="rect577" />
  <rect
     x="-79.263687"
     y="-17.98625"
     width="7"
     height="7"
     style="stroke:#ffffff;stroke-width:0.320024"
     led="15"
     ry="0.099802688"
     id="rect578"
     transform="scale(-1)" />
  <rect
     x="-70.263687"
     y="-17.98625"
     width="7"
     height="7"
     style="stroke:#ffffff;stroke-width:0.320024"
     led="14"
     ry="0.099802688"
     id="rect579"
     transform="scale(-1)" />
  <rect
     x="-61.263687"
     y="-17.98625"
     width="7"
     height="7"
     style="stroke:#ffffff;stroke-width:0.320024"
     led="13"
     ry="0.099802688"
     id="rect580"
     transform="scale(-1)" />
  <rect
     x="-52.263687"
     y="-17.98625"
     width="7"
     height="7"
     style="stroke:#ffffff;stroke-width:0.320024"
     led="12"
     ry="0.099802688"
     id="rect581"
     transform="scale(-1)" />
  <rect
     x="-43.263687"
     y="-17.98625"
     width="7"
     height="7"
     style="stroke:#ffffff;stroke-width:0.320024"
     led="11"
     ry="0.099802688"
     id="rect582"
     transform="scale(-1)" />
  <rect
     x="-34.263687"
     y="-17.98625"
     width="7"
     height="7"
     style="stroke:#ffffff;stroke-width:0.320024"
     led="10"
     ry="0.099802688"
     id="rect583"
     transform="scale(-1)" />
  <rect
     x="-25.263687"
     y="-17.98625"
     width="7"
     height="7"
     style="stroke:#ffffff;stroke-width:0.320024"
     led="9"
     ry="0.099802688"
     id="rect584"
     transform="scale(-1)" />
  <rect
     x="-16.263683"
     y="-17.98625"
     width="7"
     height="7"
     style="stroke:#ffffff;stroke-width:0.320024"
     led="8"
     ry="0.099802688"
     id="rect585"
     transform="scale(-1)" />
  <rect
     x="9.2636843"
     y="19.98625"
     width="7"
     height="7"
     style="stroke:#ffffff;stroke-width:0.320024"
     led="16"
     ry="0.099802688"
     id="rect586" />
  <rect
     x="18.263685"
     y="19.98625"
     width="7"
     height="7"
     style="stroke:#ffffff;stroke-width:0.320024"
     led="17"
     ry="0.099802688"
     id="rect587" />
  <rect
     x="27.263685"
     y="19.98625"
     width="7"
     height="7"
     style="stroke:#ffffff;stroke-width:0.320024"
     led="18"
     ry="0.099802688"
     id="rect588" />
  <rect
     x="36.263683"
     y="19.98625"
     width="7"
     height="7"
     style="stroke:#ffffff;stroke-width:0.320024"
     led="19"
     ry="0.099802688"
     id="rect589" />
  <rect
     x="45.263683"
     y="19.98625"
     width="7"
     height="7"
     style="stroke:#ffffff;stroke-width:0.320024"
     led="20"
     ry="0.099802688"
     id="rect590" />
  <rect
     x="54.263683"
     y="19.98625"
     width="7"
     height="7"
     style="stroke:#ffffff;stroke-width:0.320024"
     led="21"
     ry="0.099802688"
     id="rect591" />
  <rect
     x="63.263683"
     y="19.98625"
     width="7"
     height="7"
     style="stroke:#ffffff;stroke-width:0.320024"
     led="22"
     ry="0.099802688"
     id="rect592" />
  <rect
     x="72.263687"
     y="19.98625"
     width="7"
     height="7"
     style="stroke:#ffffff;stroke-width:0.320024"
     led="23"
     ry="0.099802688"
     id="rect593" />
  <rect
     x="-79.263687"
     y="-35.986252"
     width="7"
     height="7"
     style="stroke:#ffffff;stroke-width:0.320024"
     led="31"
     ry="0.099802688"
     id="rect594"
     transform="scale(-1)" />
  <rect
     x="-70.263687"
     y="-35.986252"
     width="7"
     height="7"
     style="stroke:#ffffff;stroke-width:0.320024"
     led="30"
     ry="0.099802688"
     id="rect595"
     transform="scale(-1)" />
  <rect
     x="-61.263687"
     y="-35.986252"
     width="7"
     height="7"
     style="stroke:#ffffff;stroke-width:0.320024"
     led="29"
     ry="0.099802688"
     id="rect596"
     transform="scale(-1)" />
  <rect
     x="-52.263687"
     y="-35.986252"
     width="7"
     height="7"
     style="stroke:#ffffff;stroke-width:0.320024"
     led="28"
     ry="0.099802688"
     id="rect597"
     transform="scale(-1)" />
  <rect
     x="-43.263687"
     y="-35.986252"
     width="7"
     height="7"
     style="stroke:#ffffff;stroke-width:0.320024"
     led="27"
     ry="0.099802688"
     id="rect598"
     transform="scale(-1)" />
  <rect
     x="-34.263687"
     y="-35.986252"
     width="7"
     height="7"
     style="stroke:#ffffff;stroke-width:0.320024"
     led="26"
     ry="0.099802688"
     id="rect599"
     transform="scale(-1)" />
  <rect
     x="-25.263687"
     y="-35.986252"
     width="7"
     height="7"
     style="stroke:#ffffff;stroke-width:0.320024"
     led="25"
     ry="0.099802688"
     id="rect600"
     transform="scale(-1)" />
  <rect
     x="-16.263683"
     y="-35.986252"
     width="7"
     height="7"
     style="stroke:#ffffff;stroke-width:0.320024"
     led="24"
     ry="0.099802688"
     id="rect601"
     transform="scale(-1)" />
  <rect
     x="9.2636843"
     y="37.986252"
     width="7"
     height="7"
     style="stroke:#ffffff;stroke-width:0.320024"
     led="32"
     ry="0.099802688"
     id="rect602" />
  <rect
     x="18.263685"
     y="37.986252"
     width="7"
     height="7"
     style="stroke:#ffffff;stroke-width:0.320024"
     led="33"
     ry="0.099802688"
     id="rect603" />
  <rect
     x="27.263685"
     y="37.986252"
     width="7"
     height="7"
     style="stroke:#ffffff;stroke-width:0.320024"
     led="34"
     ry="0.099802688"
     id="rect604" />
  <rect
     x="36.263683"
     y="37.986252"
     width="7"
     height="7"
     style="stroke:#ffffff;stroke-width:0.320024"
     led="35"
     ry="0.099802688"
     id="rect605" />
  <rect
     x="45.263683"
     y="37.986252"
     width="7"
     height="7"
     style="stroke:#ffffff;stroke-width:0.320024"
     led="36"
     ry="0.099802688"
     id="rect606" />
  <rect
     x="54.263683"
     y="37.986252"
     width="7"
     height="7"
     style="stroke:#ffffff;stroke-width:0.320024"
     led="37"
     ry="0.099802688"
     id="rect607" />
  <rect
     x="63.263683"
     y="37.986252"
     width="7"
     height="7"
     style="stroke:#ffffff;stroke-width:0.320024"
     led="38"
     ry="0.099802688"
     id="rect608" />
  <rect
     x="72.263687"
     y="37.986252"
     width="7"
     height="7"
     style="stroke:#ffffff;stroke-width:0.320024"
     led="39"
     ry="0.099802688"
     id="rect609" />
  <rect
     x="-79.263687"
     y="-53.986252"
     width="7"
     height="7"
     style="stroke:#ffffff;stroke-width:0.320024"
     led="47"
     ry="0.099802688"
     id="rect610"
     transform="scale(-1)" />
  <rect
     x="-70.263687"
     y="-53.986252"
     width="7"
     height="7"
     style="stroke:#ffffff;stroke-width:0.320024"
     led="46"
     ry="0.099802688"
     id="rect611"
     transform="scale(-1)" />
  <rect
     x="-61.263687"
     y="-53.986252"
     width="7"
     height="7"
     style="stroke:#ffffff;stroke-width:0.320024"
     led="45"
     ry="0.099802688"
     id="rect612"
     transform="scale(-1)" />
  <rect
     x="-52.263687"
     y="-53.986252"
     width="7"
     height="7"
     style="stroke:#ffffff;stroke-width:0.320024"
     led="44"
     ry="0.099802688"
     id="rect613"
     transform="scale(-1)" />
  <rect
     x="-43.263687"
     y="-53.986252"
     width="7"
     height="7"
     style="stroke:#ffffff;stroke-width:0.320024"
     led="43"
     ry="0.099802688"
     id="rect614"
     transform="scale(-1)" />
  <rect
     x="-34.263687"
     y="-53.986252"
     width="7"
     height="7"
     style="stroke:#ffffff;stroke-width:0.320024"
     led="42"
     ry="0.099802688"
     id="rect615"
     transform="scale(-1)" />
  <rect
     x="-25.263687"
     y="-53.986252"
     width="7"
     height="7"
     style="stroke:#ffffff;stroke-width:0.320024"
     led="41"
     ry="0.099802688"
     id="rect616"
     transform="scale(-1)" />
  <rect
     x="-16.263683"
     y="-53.986252"
     width="7"
     height="7"
     style="stroke:#ffffff;stroke-width:0.320024"
     led="40"
     ry="0.099802688"
     id="rect617"
     transform="scale(-1)" />
  <rect
     x="9.2636843"
     y="55.986252"
     width="7"
     height="7"
     style="stroke:#ffffff;stroke-width:0.320024"
     led="48"
     ry="0.099802688"
     id="rect618" />
  <rect
     x="18.263685"
     y="55.986252"
     width="7"
     height="7"
     style="stroke:#ffffff;stroke-width:0.320024"
     led="49"
     ry="0.099802688"
     id="rect619" />
  <rect
     x="27.263685"
     y="55.986252"
     width="7"
     height="7"
     style="stroke:#ffffff;stroke-width:0.320024"
     led="50"
     ry="0.099802688"
     id="rect620" />
  <rect
     x="36.263683"
     y="55.986252"
     width="7"
     height="7"
     style="stroke:#ffffff;stroke-width:0.320024"
     led="51"
     ry="0.099802688"
     id="rect621" />
  <rect
     x="45.263683"
     y="55.986252"
     width="7"
     height="7"
     style="stroke:#ffffff;stroke-width:0.320024"
     led="52"
     ry="0.099802688"
     id="rect622" />
  <rect
     x="54.263683"
     y="55.986252"
     width="7"
     height="7"
     style="stroke:#ffffff;stroke-width:0.320024"
     led="53"
     ry="0.099802688"
     id="rect623" />
  <rect
     x="63.263683"
     y="55.986252"
     width="7"
     height="7"
     style="stroke:#ffffff;stroke-width:0.320024"
     led="54"
     ry="0.099802688"
     id="rect624" />
  <rect
     x="72.263687"
     y="55.986252"
     width="7"
     height="7"
     style="stroke:#ffffff;stroke-width:0.320024"
     led="55"
     ry="0.099802688"
     id="rect625" />
  <rect
     x="-79.263687"
     y="-71.986252"
     width="7"
     height="7"
     style="stroke:#ffffff;stroke-width:0.320024"
     led="63"
     ry="0.099802688"
     id="rect626"
     transform="scale(-1)" />
  <rect
     x="-70.263687"
     y="-71.986252"
     width="7"
     height="7"
     style="stroke:#ffffff;stroke-width:0.320024"
     led="62"
     ry="0.099802688"
     id="rect627"
     transform="scale(-1)" />
  <rect
     x="-61.263687"
     y="-71.986252"
     width="7"
     height="7"
     style="stroke:#ffffff;stroke-width:0.320024"
     led="61"
     ry="0.099802688"
     id="rect628"
     transform="scale(-1)" />
  <rect
     x="-52.263687"
     y="-71.986252"
     width="7"
     height="7"
     style="stroke:#ffffff;stroke-width:0.320024"
     led="60"
     ry="0.099802688"
     id="rect629"
     transform="scale(-1)" />
  <rect
     x="-43.263687"
     y="-71.986252"
     width="7"
     height="7"
     style="stroke:#ffffff;stroke-width:0.320024"
     led="59"
     ry="0.099802688"
     id="rect630"
     transform="scale(-1)" />
  <rect
     x="-34.263687"
     y="-71.986252"
     width="7"
     height="7"
     style="stroke:#ffffff;stroke-width:0.320024"
     led="58"
     ry="0.099802688"
     id="rect631"
     transform="scale(-1)" />
  <rect
     x="-25.263687"
     y="-71.986252"
     width="7"
     height="7"
     style="stroke:#ffffff;stroke-width:0.320024"
     led="57"
     ry="0.099802688"
     id="rect632"
     transform="scale(-1)" />
  <rect
     x="-16.263683"
     y="-71.986252"
     width="7"
     height="7"
     style="stroke:#ffffff;stroke-width:0.320024"
     led="56"
     ry="0.099802688"
     id="rect633"
     transform="scale(-1)" />
  <path
     id="rect634"
     style="fill:#00b413;fill-opacity:1;stroke:#999999;stroke-width:0.7;stroke-dasharray:none"
     d="m 5.9920327,2.5703497 c -0.025512,0 -0.051248,0.00939 -0.070797,0.028939 L 5.095447,3.4255947 c -0.039097,0.039096 -0.039097,0.1019802 0,0.1410766 l 1.1642694,1.16427 H 0.44973499 c -0.05529,0 -0.099735,0.044445 -0.099735,0.099736 v 1.3239502 c 0,0.055291 0.044445,0.099736 0.099735,0.099736 H 6.2591996 L 5.095447,7.4181158 c -0.039097,0.039096 -0.039097,0.1019803 0,0.1410767 l 0.825789,0.8263061 c 0.039096,0.039096 0.1019803,0.039096 0.1410766,0 L 8.4011879,6.0466233 c 0.039096,-0.039096 0,-0.085786 0,-0.1410766 V 5.0792405 c 0,-0.055291 0.039096,-0.1019803 0,-0.1410767 L 6.0623126,2.5992885 c -0.019548,-0.019548 -0.044768,-0.028939 -0.07028,-0.028939 z"
     sodipodi:nodetypes="sccccssssccccccsscss" />
  <path
     id="rect634-5"
     style="fill:#00b413;fill-opacity:1;stroke:#999999;stroke-width:0.7;stroke-dasharray:none"
     d="m 5.7946326,11.565514 c -0.02551,0 -0.05125,0.0094 -0.0708,0.02894 l -0.825789,0.826306 c -0.039097,0.0391 -0.039097,0.10198 0,0.141076 l 1.164269,1.16427 h -5.809978 c -0.05529,0 -0.099735,0.04444 -0.099735,0.09974 v 1.323951 c 0,0.05529 0.044445,0.09974 0.099735,0.09974 h 5.809465 l -1.163753,1.163753 c -0.039097,0.0391 -0.039097,0.10198 0,0.141077 l 0.825789,0.826306 c 0.0391,0.0391 0.10198,0.0391 0.141077,0 l 2.338875,-2.338877 c 0.0391,-0.0391 0,-0.08579 0,-0.141076 v -0.826306 c 0,-0.05529 0.0391,-0.101981 0,-0.141077 l -2.338875,-2.338883 c -0.01955,-0.01955 -0.04477,-0.02894 -0.07028,-0.02894 z"
     sodipodi:nodetypes="sccccssssccccccsscss" />
  <path
     id="rect634-5-2"
     style="fill:#00b413;fill-opacity:1;stroke:#999999;stroke-width:0.7;stroke-dasharray:none"
     d="m 5.7946328,20.560677 c -0.02551,0 -0.05125,0.0094 -0.0708,0.02894 l -0.825789,0.826306 c -0.0391,0.0391 -0.0391,0.10198 0,0.141076 l 1.164269,1.16427 H 0.25233445 c -0.05529,0 -0.099735,0.04444 -0.099735,0.09974 v 1.323951 c 0,0.05529 0.044445,0.09974 0.099735,0.09974 H 6.0617998 l -1.163753,1.163753 c -0.0391,0.0391 -0.0391,0.10198 0,0.141077 l 0.825789,0.826306 c 0.0391,0.0391 0.1019799,0.0391 0.1410769,0 l 2.3388751,-2.338877 c 0.0391,-0.0391 0,-0.08579 0,-0.141076 v -0.826306 c 0,-0.05529 0.0391,-0.101981 0,-0.141077 L 5.8649127,20.589617 c -0.01955,-0.01955 -0.04477,-0.02894 -0.07028,-0.02894 z"
     sodipodi:nodetypes="sccccssssccccccsscss" />
  <path
     id="rect634-5-2-7"
     style="fill:#00b413;fill-opacity:1;stroke:#999999;stroke-width:0.7;stroke-dasharray:none"
     d="m 5.794633,29.55584 c -0.02551,0 -0.05125,0.0094 -0.0708,0.02894 l -0.825789,0.826306 c -0.0391,0.0391 -0.0391,0.10198 0,0.141076 l 1.164269,1.16427 H 0.25233427 c -0.05529,0 -0.099735,0.04444 -0.099735,0.09974 v 1.323951 c 0,0.05529 0.044445,0.09974 0.099735,0.09974 H 6.0618 l -1.163753,1.163753 c -0.0391,0.0391 -0.0391,0.10198 0,0.141077 l 0.825789,0.826306 c 0.0391,0.0391 0.10198,0.0391 0.141077,0 l 2.338875,-2.338877 c 0.0391,-0.0391 0,-0.08579 0,-0.141076 V 32.06474 c 0,-0.05529 0.0391,-0.101981 0,-0.141077 L 5.864913,29.58478 c -0.01955,-0.01955 -0.04477,-0.02894 -0.07028,-0.02894 z"
     sodipodi:nodetypes="sccccssssccccccsscss" />
  <path
     id="rect634-5-2-0"
     style="fill:#00b413;fill-opacity:1;stroke:#999999;stroke-width:0.7;stroke-dasharray:none"
     d="m 5.794633,38.551003 c -0.02551,0 -0.05125,0.0094 -0.0708,0.02894 l -0.825789,0.826306 c -0.0391,0.0391 -0.0391,0.10198 0,0.141076 l 1.164269,1.16427 H 0.2523349 c -0.05529,0 -0.099735,0.04444 -0.099735,0.09974 v 1.323951 c 0,0.05529 0.044445,0.09974 0.099735,0.09974 H 6.0618 l -1.163753,1.163753 c -0.0391,0.0391 -0.0391,0.10198 0,0.141077 l 0.825789,0.826306 c 0.0391,0.0391 0.10198,0.0391 0.141077,0 l 2.338875,-2.338877 c 0.0391,-0.0391 0,-0.08579 0,-0.141076 v -0.826306 c 0,-0.05529 0.0391,-0.101981 0,-0.141077 L 5.864913,38.579943 c -0.01955,-0.01955 -0.04477,-0.02894 -0.07028,-0.02894 z"
     sodipodi:nodetypes="sccccssssccccccsscss" />
  <path
     id="rect634-5-2-7-6"
     style="fill:#00b413;fill-opacity:1;stroke:#999999;stroke-width:0.7;stroke-dasharray:none"
     d="m 5.794633,47.546166 c -0.02551,0 -0.05125,0.0094 -0.0708,0.02894 l -0.825789,0.826306 c -0.0391,0.0391 -0.0391,0.10198 0,0.141076 l 1.164269,1.16427 H 0.2523347 c -0.05529,0 -0.099735,0.04444 -0.099735,0.09974 v 1.323951 c 0,0.05529 0.044445,0.09974 0.099735,0.09974 H 6.0618 l -1.163753,1.163753 c -0.0391,0.0391 -0.0391,0.10198 0,0.141077 l 0.825789,0.826306 c 0.0391,0.0391 0.10198,0.0391 0.141077,0 l 2.338875,-2.338877 c 0.0391,-0.0391 0,-0.08579 0,-0.141076 v -0.826306 c 0,-0.05529 0.0391,-0.101981 0,-0.141077 L 5.864913,47.575106 c -0.01955,-0.01955 -0.04477,-0.02894 -0.07028,-0.02894 z"
     sodipodi:nodetypes="sccccssssccccccsscss" />
  <path
     id="rect634-5-2-0-7"
     style="fill:#00b413;fill-opacity:1;stroke:#999999;stroke-width:0.7;stroke-dasharray:none"
     d="m 5.794633,56.400252 c -0.02551,0 -0.05125,0.0094 -0.0708,0.02894 l -0.825789,0.826306 c -0.0391,0.0391 -0.0391,0.10198 0,0.141076 l 1.164269,1.16427 H 0.2523353 c -0.05529,0 -0.099735,0.04444 -0.099735,0.09974 v 1.323951 c 0,0.05529 0.044445,0.09974 0.099735,0.09974 H 6.0618 l -1.163753,1.163753 c -0.0391,0.0391 -0.0391,0.10198 0,0.141077 l 0.825789,0.826306 c 0.0391,0.0391 0.10198,0.0391 0.141077,0 l 2.338875,-2.338877 c 0.0391,-0.0391 0,-0.08579 0,-0.141076 v -0.826306 c 0,-0.05529 0.0391,-0.101981 0,-0.141077 L 5.864913,56.429192 c -0.01955,-0.01955 -0.04477,-0.02894 -0.07028,-0.02894 z"
     sodipodi:nodetypes="sccccssssccccccsscss" />
  <path
     id="rect634-5-2-7-6-9"
     style="fill:#00b413;fill-opacity:1;stroke:#999999;stroke-width:0.7;stroke-dasharray:none"
     d="m 5.794633,65.395415 c -0.02551,0 -0.05125,0.0094 -0.0708,0.02894 l -0.825789,0.826306 c -0.0391,0.0391 -0.0391,0.10198 0,0.141076 l 1.164269,1.16427 H 0.2523351 c -0.05529,0 -0.099735,0.04444 -0.099735,0.09974 v 1.323951 c 0,0.05529 0.044445,0.09974 0.099735,0.09974 H 6.0618 l -1.163753,1.163753 c -0.0391,0.0391 -0.0391,0.10198 0,0.141077 l 0.825789,0.826306 c 0.0391,0.0391 0.10198,0.0391 0.141077,0 l 2.338875,-2.338877 c 0.0391,-0.0391 0,-0.08579 0,-0.141076 v -0.826306 c 0,-0.05529 0.0391,-0.101981 0,-0.141077 L 5.864913,65.424355 c -0.01955,-0.01955 -0.04477,-0.02894 -0.07028,-0.02894 z"
     sodipodi:nodetypes="sccccssssccccccsscss" />
</svg>
