<?xml version="1.0" encoding="UTF-8" standalone="no"?>
<!-- Created with Inkscape (http://www.inkscape.org/) -->

<svg
   width="145.10851mm"
   height="158.44901mm"
   viewBox="0 0 145.10851 158.44901"
   version="1.1"
   id="svg1"
   inkscape:version="1.3.2 (091e20ef0f, 2023-11-25)"
   sodipodi:docname="Icon.svg"
   xmlns:inkscape="http://www.inkscape.org/namespaces/inkscape"
   xmlns:sodipodi="http://sodipodi.sourceforge.net/DTD/sodipodi-0.dtd"
   xmlns:xlink="http://www.w3.org/1999/xlink"
   xmlns="http://www.w3.org/2000/svg"
   xmlns:svg="http://www.w3.org/2000/svg">
  <sodipodi:namedview
     id="namedview1"
     pagecolor="#ffffff"
     bordercolor="#000000"
     borderopacity="0.25"
     inkscape:showpageshadow="2"
     inkscape:pageopacity="0.0"
     inkscape:pagecheckerboard="0"
     inkscape:deskcolor="#d1d1d1"
     inkscape:document-units="mm"
     inkscape:zoom="0.75540971"
     inkscape:cx="439.4966"
     inkscape:cy="405.74009"
     inkscape:window-width="1620"
     inkscape:window-height="1033"
     inkscape:window-x="296"
     inkscape:window-y="25"
     inkscape:window-maximized="1"
     inkscape:current-layer="layer1" />
  <defs
     id="defs1">
    <linearGradient
       inkscape:collect="always"
       xlink:href="#swatch27"
       id="linearGradient28"
       x1="79.595612"
       y1="113.49328"
       x2="122.35274"
       y2="113.49328"
       gradientUnits="userSpaceOnUse"
       spreadMethod="pad"
       gradientTransform="translate(-28.41943,-30.120618)" />
    <linearGradient
       id="swatch27">
      <stop
         style="stop-color:#c9ff31;stop-opacity:1;"
         offset="0"
         id="stop27" />
      <stop
         style="stop-color:#13ff0d;stop-opacity:1;"
         offset="1"
         id="stop28" />
    </linearGradient>
    <linearGradient
       inkscape:collect="always"
       xlink:href="#swatch27"
       id="linearGradient53"
       x1="28.41943"
       y1="68.643875"
       x2="173.52792"
       y2="68.643875"
       gradientUnits="userSpaceOnUse"
       gradientTransform="translate(-28.41943,-30.120618)" />
    <radialGradient
       inkscape:collect="always"
       xlink:href="#linearGradient29"
       id="radialGradient30"
       cx="100.9742"
       cy="167.30219"
       fx="100.9742"
       fy="167.30219"
       r="33.123581"
       gradientTransform="matrix(1,0,0,0.64205614,-28.41943,29.764174)"
       gradientUnits="userSpaceOnUse" />
    <linearGradient
       id="linearGradient29"
       inkscape:collect="always">
      <stop
         style="stop-color:#ffffff;stop-opacity:1;"
         offset="0"
         id="stop29" />
      <stop
         style="stop-color:#8b8b8b;stop-opacity:1;"
         offset="1"
         id="stop30" />
    </linearGradient>
  </defs>
  <g
     inkscape:label="Ebene 1"
     inkscape:groupmode="layer"
     id="layer1">
    <path
       id="rect1"
       style="fill:url(#linearGradient28);fill-opacity:1;stroke:#000000;stroke-width:0.8;stroke-dasharray:none"
       d="M 72.55475,54.124577 A 20.975595,20.975595 0 0 0 51.579286,75.100042 A 20.975595,20.975595 0 0 0 51.583937,75.167732 C 51.582241,75.174652 51.576185,75.179412 51.576185,75.186862 V 112.53083 C 51.576185,112.58051 51.616417,112.62075 51.666102,112.62075 H 93.4434 C 93.49308,112.62075 93.53331,112.58051 93.53331,112.53083 V 75.186862 C 93.53331,75.179412 93.52726,75.174652 93.52556,75.167732 A 20.975595,20.975595 0 0 0 93.53021,75.100042 A 20.975595,20.975595 0 0 0 72.55475,54.124577 Z" />
    <path
       style="color:#000000;fill:#ffffff;fill-opacity:0.534991;stroke:#000000;stroke-width:0.8;stroke-linecap:round;stroke-dasharray:none"
       d="M 71.7067,58.995911 C 70.076935,59.089135 68.535717,59.463717 67.187168,60.056458 C 64.490069,61.24194 62.550945,63.100557 61.114902,64.890442 C 58.242817,68.470212 57.060215,72.284972 57.060215,72.284972 A 5,5 0 0 0 60.255527,78.591612 A 5,5 0 0 0 66.564121,75.396302 C 66.564121,75.396302 67.408591,73.024262 68.91373,71.148252 C 69.6663,70.210252 70.50353,69.521542 71.210605,69.210752 C 71.91768,68.899962 72.48076,68.762982 73.77896,69.167782 A 5,5 0 0 0 80.04068,65.882629 A 5,5 0 0 0 76.75553,59.620911 C 75.05434,59.090451 73.33646,58.902686 71.7067,58.995911 Z"
       id="path2" />
    <path
       id="path43"
       style="color:#000000;fill:url(#linearGradient53);stroke:#000000;stroke-width:0.8;stroke-linecap:round;stroke-dasharray:none"
       d="M 72.72995,0.40000001 C 70.553434,0.40000001 68.815979,2.139526 68.815979,4.31604 V 34.910038 C 68.815979,37.086553 70.553434,38.826078 72.72995,38.826078 C 74.90646,38.826078 76.64599,37.086553 76.64599,34.910038 V 4.31604 C 76.64599,2.139526 74.90646,0.40000001 72.72995,0.40000001 Z M 24.426957,20.255118 C 23.42754,20.254774 22.428164,20.639539 21.65865,21.409053 C 20.119623,22.948083 20.119621,25.407672 21.65865,26.9467 L 43.291955,48.580005 C 44.830984,50.119031 47.291091,50.119034 48.830118,48.580005 C 50.369147,47.040976 50.367597,44.582419 48.828568,43.043392 L 27.195263,21.410087 C 26.425748,20.640573 25.426374,20.255463 24.426957,20.255118 Z M 120.93114,20.503165 C 119.93138,20.503166 118.93183,20.888104 118.16232,21.657617 L 96.52902,43.290405 C 94.98999,44.82943 94.98999,47.28954 96.52902,48.828568 C 98.06804,50.367599 100.52815,50.367595 102.06718,48.828568 L 123.70048,27.19578 C 125.23951,25.656754 125.23952,23.196646 123.70048,21.657617 C 122.93097,20.888102 121.9309,20.503164 120.93114,20.503165 Z M 4.31604,68.462512 C 2.139525,68.462512 0.40000001,70.202032 0.40000001,72.378552 C 0.40000001,74.555072 2.139525,76.294592 4.31604,76.294592 H 34.910038 C 37.086553,76.294592 38.826078,74.555072 38.826078,72.378552 C 38.826078,70.202032 37.086553,68.462512 34.910038,68.462512 Z M 110.19898,68.814428 C 109.92692,68.814428 109.66156,68.841678 109.40575,68.893493 C 108.38251,69.100755 107.50984,69.701943 106.94957,70.534732 C 106.8095,70.742932 106.68887,70.965752 106.59042,71.200332 C 106.49197,71.434902 106.41532,71.681372 106.36356,71.937232 C 106.3118,72.193102 106.28501,72.458402 106.28501,72.730472 C 106.28501,73.002532 106.3118,73.267842 106.36356,73.523702 C 106.46708,74.035432 106.66943,74.509282 106.94957,74.925682 C 107.08964,75.133882 107.2489,75.327722 107.42551,75.504462 C 107.95535,76.034662 108.63832,76.412002 109.40575,76.567442 C 109.66156,76.619262 109.92692,76.646512 110.19898,76.646512 H 140.79453 C 142.97104,76.646512 144.7085,74.906982 144.7085,72.730472 C 144.7085,70.553962 142.97104,68.814428 140.79453,68.814428 Z"
       sodipodi:nodetypes="sssssssssscsccssccsccssssssssssssssssssssssss" />
    <ellipse
       style="fill:#000000;stroke:none;stroke-width:1.75857;stroke-linecap:round;stroke-dasharray:none"
       id="path8"
       cx="59.189457"
       cy="89.325035"
       rx="3.656456"
       ry="3.1495345" />
    <ellipse
       style="fill:#000000;stroke:none;stroke-width:1.75779;stroke-linecap:round;stroke-dasharray:none"
       id="path8-3"
       cx="85.821877"
       cy="89.127396"
       rx="3.656456"
       ry="3.1467333" />
    <path
       style="fill:none;stroke:#000000;stroke-width:0.8;stroke-linecap:round;stroke-dasharray:none"
       d="M 65.787497,93.948502 C 65.787497,93.948502 62.264714,97.168942 66.004001,98.618762 C 69.743317,100.06859 71.88216,97.139662 73.47326,97.128002 C 75.06437,97.116332 76.22644,99.197472 79.4786,98.254912 C 82.73077,97.312332 80.98639,94.526962 80.00868,94.010282"
       id="path9" />
    <path
       id="rect9"
       style="fill:url(#radialGradient30);stroke:#000000;stroke-width:0.799999;stroke-linecap:round;stroke-dasharray:none"
       d="M 43.272318,116.31437 C 41.365822,116.31437 39.831184,117.84952 39.831184,119.75602 V 119.81131 C 39.831184,121.71781 41.365822,123.25245 43.272318,123.25245 H 60.140022 V 155.7869 C 60.140022,157.03997 61.148829,158.04877 62.4019,158.04877 C 63.654971,158.04877 64.663777,157.03997 64.663777,155.7869 V 123.25245 H 80.42974 V 153.86143 C 80.42974,155.1145 81.43855,156.12331 82.69162,156.12331 C 83.94469,156.12331 84.95349,155.1145 84.95349,153.86143 V 123.25245 H 101.83722 C 103.74371,123.25245 105.27835,121.71781 105.27835,119.81131 V 119.75602 C 105.27835,117.84952 103.74371,116.31437 101.83722,116.31437 Z" />
  </g>
</svg>
